<svg width="96" height="54" viewBox="0 0 96 54" fill="none" xmlns="http://www.w3.org/2000/svg">
<g clip-path="url(#clip0_4763_15475)">
<rect width="96" height="54" fill="#4B4B4B"/>
<g filter="url(#filter0_d_4763_15475)">
<rect x="8" y="8" width="80" height="46" fill="#2C2C2C"/>
</g>
<mask id="mask0_4763_15475" style="mask-type:alpha" maskUnits="userSpaceOnUse" x="8" y="8" width="80" height="46">
<rect x="8" y="8" width="80" height="46" fill="#2C2C2C"/>
</mask>
<g mask="url(#mask0_4763_15475)">
<g filter="url(#filter1_d_4763_15475)">
<rect x="30" y="14" width="40" height="22" transform="rotate(90 30 14)" fill="#2C2C2C"/>
</g>
<g filter="url(#filter2_d_4763_15475)">
<rect x="8" y="8" width="80" height="6" fill="#2C2C2C"/>
</g>
</g>
<path d="M13 11C13 11.5527 12.5547 12 12 12C11.4453 12 11 11.5527 11 11C11 10.4473 11.4453 10 12 10C12.5547 10 13 10.4473 13 11Z" fill="#5E5E5E"/>
<path d="M17 11C17 11.334 16.8359 11.6289 16.5859 11.8105C16.4219 11.9297 16.2188 12 16 12C15.4453 12 15 11.5527 15 11C15 10.4473 15.4453 10 16 10C16.5547 10 17 10.4473 17 11Z" fill="#5E5E5E"/>
<path d="M20.5938 11.8047C20.8438 11.623 21 11.3301 21 11C21 10.4473 20.5547 10 20 10C19.4453 10 19 10.4473 19 11C19 11.5527 19.4453 12 20 12C20.2266 12 20.4297 11.9277 20.5938 11.8047Z" fill="#5E5E5E"/>
<circle cx="38" cy="20" r="2" fill="#5E5E5E"/>
<path d="M42 19.5H58" stroke="#5E5E5E"/>
<path d="M42 28H70" stroke="#5E5E5E"/>
<path d="M37 28H39" stroke="#5E5E5E"/>
<path d="M42 31H78" stroke="#5E5E5E"/>
<path d="M42 34H70" stroke="#5E5E5E"/>
<path d="M42 39H70" stroke="#5E5E5E"/>
<path d="M42 45H70" stroke="#5E5E5E"/>
<path d="M42 42H78" stroke="#5E5E5E"/>
<path d="M42 48H78" stroke="#5E5E5E"/>
<path d="M37 34H39" stroke="#5E5E5E"/>
<path d="M37 42H39" stroke="#5E5E5E"/>
<path d="M37 31H39" stroke="#5E5E5E"/>
<path d="M37 45H39" stroke="#5E5E5E"/>
<path d="M37 39H39" stroke="#5E5E5E"/>
<path d="M37 48H39" stroke="#5E5E5E"/>
<path d="M42 22.5H50" stroke="#5E5E5E"/>
<circle cx="12.5" cy="19.5" r="1.5" fill="#5E5E5E"/>
<path d="M16 19.5H26" stroke="#5E5E5E"/>
<path d="M11 25H24" stroke="#5E5E5E"/>
<path d="M11 28H24" stroke="#5E5E5E"/>
<path d="M11 31H19" stroke="#5E5E5E"/>
<path d="M11 34H24" stroke="#5E5E5E"/>
<path d="M11 37H24" stroke="#5E5E5E"/>
<path d="M11 40H19" stroke="#5E5E5E"/>
</g>
<defs>
<filter id="filter0_d_4763_15475" x="6" y="6" width="84" height="50" filterUnits="userSpaceOnUse" color-interpolation-filters="sRGB">
<feFlood flood-opacity="0" result="BackgroundImageFix"/>
<feColorMatrix in="SourceAlpha" type="matrix" values="0 0 0 0 0 0 0 0 0 0 0 0 0 0 0 0 0 0 127 0" result="hardAlpha"/>
<feOffset/>
<feGaussianBlur stdDeviation="1"/>
<feComposite in2="hardAlpha" operator="out"/>
<feColorMatrix type="matrix" values="0 0 0 0 0 0 0 0 0 0 0 0 0 0 0 0 0 0 0.15 0"/>
<feBlend mode="normal" in2="BackgroundImageFix" result="effect1_dropShadow_4763_15475"/>
<feBlend mode="normal" in="SourceGraphic" in2="effect1_dropShadow_4763_15475" result="shape"/>
</filter>
<filter id="filter1_d_4763_15475" x="8" y="14" width="22.5" height="40" filterUnits="userSpaceOnUse" color-interpolation-filters="sRGB">
<feFlood flood-opacity="0" result="BackgroundImageFix"/>
<feColorMatrix in="SourceAlpha" type="matrix" values="0 0 0 0 0 0 0 0 0 0 0 0 0 0 0 0 0 0 127 0" result="hardAlpha"/>
<feOffset dx="0.5"/>
<feComposite in2="hardAlpha" operator="out"/>
<feColorMatrix type="matrix" values="0 0 0 0 0.133333 0 0 0 0 0.133333 0 0 0 0 0.133333 0 0 0 1 0"/>
<feBlend mode="normal" in2="BackgroundImageFix" result="effect1_dropShadow_4763_15475"/>
<feBlend mode="normal" in="SourceGraphic" in2="effect1_dropShadow_4763_15475" result="shape"/>
</filter>
<filter id="filter2_d_4763_15475" x="8" y="8" width="80" height="6.5" filterUnits="userSpaceOnUse" color-interpolation-filters="sRGB">
<feFlood flood-opacity="0" result="BackgroundImageFix"/>
<feColorMatrix in="SourceAlpha" type="matrix" values="0 0 0 0 0 0 0 0 0 0 0 0 0 0 0 0 0 0 127 0" result="hardAlpha"/>
<feOffset dy="0.5"/>
<feComposite in2="hardAlpha" operator="out"/>
<feColorMatrix type="matrix" values="0 0 0 0 0.133333 0 0 0 0 0.133333 0 0 0 0 0.133333 0 0 0 1 0"/>
<feBlend mode="normal" in2="BackgroundImageFix" result="effect1_dropShadow_4763_15475"/>
<feBlend mode="normal" in="SourceGraphic" in2="effect1_dropShadow_4763_15475" result="shape"/>
</filter>
<clipPath id="clip0_4763_15475">
<rect width="96" height="54" fill="white"/>
</clipPath>
</defs>
</svg>
